<!-- Animated using SVGANIMA - https://svganima.com -->
<svg width="1440" height="1024" viewBox="0 0 1440 1024" fill="none" xmlns="http://www.w3.org/2000/svg" id="svg4342" preserveAspectRatio="xMidYMid">
<rect width="1440" height="1024" fill="#F5F5F5" id="rect8773"></rect>
<g id="Desktop - 1">
<rect width="1440" height="1024" fill="url(#paint0_linear_0_1)" id="rect4095"></rect>
<g id="icon" clip-path="url(#clip0_0_1)">
<path id="Vector" d="M 796.481 506.905 C 837.764 441.11 836.765 369.462 794.248 346.875 C 751.732 324.288 683.799 359.316 642.516 425.111 C 601.232 490.906 602.232 562.554 644.748 585.141 C 687.265 607.727 755.198 572.7 796.481 506.905 Z" fill="url(#paint1_linear_0_1)"></path>
<path id="Vector_2" d="M 794.241 585.131 C 836.758 562.544 837.757 490.897 796.474 425.101 C 755.191 359.306 687.258 324.279 644.741 346.866 C 602.225 369.452 601.225 441.1 642.509 506.895 C 683.792 572.691 751.725 607.718 794.241 585.131 Z" fill="url(#paint2_linear_0_1)"></path>
<path id="Vector_3" d="M 719.5 547.794 C 802.067 547.794 869 511.174 869 466 C 869 420.826 802.067 384.206 719.5 384.206 C 636.933 384.206 570 420.826 570 466 C 570 511.174 636.933 547.794 719.5 547.794 Z" fill="url(#paint3_linear_0_1)"></path>
<animateTransform attributeName="transform" attributeType="auto" type="rotate" values="0 718 466.5;360 718 466.5" calcMode="spline" keyTimes="0;1" keySplines="0 0 1 1" dur="40s" begin="0s" repeatCount="indefinite" additive="sum" accumulate="none" fill="freeze" id="animateTransform4383"></animateTransform></g>
<text id="Welcome to Nuvolux" fill="#101828" xml:space="preserve" style="white-space: pre" font-family="Inter" font-size="70" font-weight="600" letter-spacing="0em" transform="matrix(1 0 0 1 64 0)"><tspan x="373.281" y="710.455" id="tspan9575">Welcome to Nuvolux</tspan></text>
<path id="Vector_4" d="M 1223.65 674.853 C 1196.72 674.853 1174.85 697.172 1174.85 724.647 C 1174.85 724.859 1174.71 725 1174.5 725 C 1174.29 725 1174.15 724.859 1174.15 724.647 C 1174.15 697.172 1152.28 674.853 1125.35 674.853 C 1125.14 674.853 1125 674.712 1125 674.5 C 1125 674.288 1125.14 674.147 1125.35 674.147 C 1152.28 674.147 1174.15 651.828 1174.15 624.353 C 1174.15 624.141 1174.29 624 1174.5 624 C 1174.71 624 1174.85 624.141 1174.85 624.353 C 1174.85 651.828 1196.72 674.147 1223.65 674.147 C 1223.86 674.147 1224 674.288 1224 674.5 C 1224 674.712 1223.86 674.853 1223.65 674.853 Z M 1196.65 637.773 C 1203.92 637.773 1209.81 631.769 1209.81 624.353 C 1209.81 624.141 1209.95 624 1210.15 624 C 1210.36 624 1210.5 624.141 1210.5 624.353 C 1210.5 631.769 1216.38 637.773 1223.65 637.773 C 1223.86 637.773 1224 637.914 1224 638.126 C 1224 638.338 1223.86 638.479 1223.65 638.479 C 1216.38 638.479 1210.5 644.483 1210.5 651.899 C 1210.5 652.11 1210.36 652.252 1210.15 652.252 C 1209.95 652.252 1209.81 652.11 1209.81 651.899 C 1209.81 644.483 1203.92 638.479 1196.65 638.479 C 1196.45 638.479 1196.31 638.338 1196.31 638.126 C 1196.31 637.914 1196.45 637.773 1196.65 637.773 Z M 1148.19 711.227 C 1143.21 711.227 1139.19 715.324 1139.19 720.409 C 1139.19 720.621 1139.05 720.762 1138.85 720.762 C 1138.64 720.762 1138.5 720.621 1138.5 720.409 C 1138.5 715.324 1134.48 711.227 1129.5 711.227 C 1129.29 711.227 1129.15 711.086 1129.15 710.874 C 1129.15 710.662 1129.29 710.521 1129.5 710.521 C 1134.48 710.521 1138.5 706.424 1138.5 701.339 C 1138.5 701.127 1138.64 700.986 1138.85 700.986 C 1139.05 700.986 1139.19 701.127 1139.19 701.339 C 1139.19 706.424 1143.21 710.521 1148.19 710.521 C 1148.4 710.521 1148.54 710.662 1148.54 710.874 C 1148.54 711.086 1148.4 711.227 1148.19 711.227 Z" fill="#7F56D9"><animateTransform attributeName="transform" attributeType="auto" type="rotate" values="0 1174 674.5;360 1174 674.5" calcMode="spline" keyTimes="0;1" keySplines="0 0 1 1" dur="40s" begin="0s" repeatCount="indefinite" additive="sum" accumulate="none" fill="freeze" id="animateTransform2751"></animateTransform></path>
<path id="Vector_5" d="M 314.654 674.853 C 287.723 674.853 265.846 697.172 265.846 724.647 C 265.846 724.859 265.708 725 265.5 725 C 265.292 725 265.154 724.859 265.154 724.647 C 265.154 697.172 243.277 674.853 216.346 674.853 C 216.138 674.853 216 674.712 216 674.5 C 216 674.288 216.138 674.147 216.346 674.147 C 243.277 674.147 265.154 651.828 265.154 624.353 C 265.154 624.141 265.292 624 265.5 624 C 265.708 624 265.846 624.141 265.846 624.353 C 265.846 651.828 287.723 674.147 314.654 674.147 C 314.862 674.147 315 674.288 315 674.5 C 315 674.712 314.862 674.853 314.654 674.853 Z M 287.654 637.773 C 294.923 637.773 300.808 631.769 300.808 624.353 C 300.808 624.141 300.946 624 301.154 624 C 301.362 624 301.5 624.141 301.5 624.353 C 301.5 631.769 307.385 637.773 314.654 637.773 C 314.862 637.773 315 637.914 315 638.126 C 315 638.338 314.862 638.479 314.654 638.479 C 307.385 638.479 301.5 644.483 301.5 651.899 C 301.5 652.11 301.362 652.252 301.154 652.252 C 300.946 652.252 300.808 652.11 300.808 651.899 C 300.808 644.483 294.923 638.479 287.654 638.479 C 287.446 638.479 287.308 638.338 287.308 638.126 C 287.308 637.914 287.446 637.773 287.654 637.773 Z M 239.192 711.227 C 234.208 711.227 230.192 715.324 230.192 720.409 C 230.192 720.621 230.054 720.762 229.846 720.762 C 229.638 720.762 229.5 720.621 229.5 720.409 C 229.5 715.324 225.485 711.227 220.5 711.227 C 220.292 711.227 220.154 711.086 220.154 710.874 C 220.154 710.662 220.292 710.521 220.5 710.521 C 225.485 710.521 229.5 706.424 229.5 701.339 C 229.5 701.127 229.638 700.986 229.846 700.986 C 230.054 700.986 230.192 701.127 230.192 701.339 C 230.192 706.424 234.208 710.521 239.192 710.521 C 239.4 710.521 239.538 710.662 239.538 710.874 C 239.538 711.086 239.4 711.227 239.192 711.227 Z" fill="#7F56D9"><animateTransform attributeName="transform" attributeType="auto" type="rotate" values="0 266 674.5;360 266 674.5" calcMode="spline" keyTimes="0;1" keySplines="0 0 1 1" dur="40s" begin="0s" repeatCount="indefinite" additive="sum" accumulate="none" fill="freeze" id="animateTransform194"></animateTransform></path>
</g>
<defs id="defs6782">
<linearGradient id="paint0_linear_0_1" x1="720" y1="0" x2="720" y2="1024" gradientUnits="userSpaceOnUse">
<stop stop-color="#FFF4ED" id="stop3829"></stop>
<stop offset="0.18" stop-color="#FCE6FF" id="stop4691"></stop>
<stop offset="0.59" stop-color="#D4EBFF" id="stop363"></stop>
<stop offset="1" stop-color="#D1FEFC" id="stop4305"></stop>
</linearGradient>
<linearGradient id="paint1_linear_0_1" x1="637.768" y1="409.741" x2="802.635" y2="536.647" gradientUnits="userSpaceOnUse">
<stop stop-color="#03A4FD" stop-opacity="0" id="stop1043"></stop>
<stop offset="1" stop-color="#0849FF" id="stop2696"></stop>
</linearGradient>
<linearGradient id="paint2_linear_0_1" x1="632.83" y1="496.461" x2="798.8" y2="425.017" gradientUnits="userSpaceOnUse">
<stop stop-color="#0879FF" stop-opacity="0.1" id="stop6242"></stop>
<stop offset="1" stop-color="#37F9F7" id="stop7838"></stop>
</linearGradient>
<linearGradient id="paint3_linear_0_1" x1="718.732" y1="545.898" x2="720.067" y2="383.052" gradientUnits="userSpaceOnUse">
<stop stop-color="#FB81FF" stop-opacity="0" id="stop8177"></stop>
<stop offset="1" stop-color="#FB81FF" id="stop286"></stop>
</linearGradient>
<clipPath id="clip0_0_1">
<rect width="299" height="252" fill="white" transform="translate(570 340)" id="rect4841"></rect>
</clipPath>
</defs>
</svg>