<!-- Animated using SVGANIMA - https://svganima.com -->
<svg width="375" height="197" viewBox="0 0 375 197" fill="none" xmlns="http://www.w3.org/2000/svg" id="svg3010" preserveAspectRatio="xMidYMid">
<rect width="375" height="197" fill="#F5F5F5" id="rect1214"></rect>
<g id="Home Screen">
<path d=" M -7005 -334 C -7005 -361.614 -6982.61 -384 -6955 -384 H 366 C 393.614 -384 416 -361.614 416 -334 V 4441 C 416 4468.61 393.614 4491 366 4491 H -6955 C -6982.61 4491 -7005 4468.61 -7005 4441 V -334 Z " fill="#E0E0E0" id="path9156"></path>
<path d=" M -6955 -383 H 366 V -385 H -6955 V -383 Z M 415 -334 V 4441 H 417 V -334 H 415 Z M 366 4490 H -6955 V 4492 H 366 V 4490 Z M -7004 4441 V -334 H -7006 V 4441 H -7004 Z M -6955 4490 C -6982.06 4490 -7004 4468.06 -7004 4441 H -7006 C -7006 4469.17 -6983.17 4492 -6955 4492 V 4490 Z M 415 4441 C 415 4468.06 393.062 4490 366 4490 V 4492 C 394.167 4492 417 4469.17 417 4441 H 415 Z M 366 -383 C 393.062 -383 415 -361.062 415 -334 H 417 C 417 -362.167 394.166 -385 366 -385 V -383 Z M -6955 -385 C -6983.17 -385 -7006 -362.167 -7006 -334 H -7004 C -7004 -361.062 -6982.06 -383 -6955 -383 V -385 Z " fill="black" fill-opacity="0.1" id="path168"></path>
<g id="Nuvolux Landing">
<rect width="375" height="197" fill="url(#paint0_linear_0_1)" id="rect9030"></rect>
<g id="Frame 1010106271">
<g id="icon" clip-path="url(#clip0_0_1)">
<path id="Vector" d="M 197.892 88.8436 C 203.465 79.4443 203.33 69.2089 197.591 65.9822 C 191.851 62.7555 182.681 67.7594 177.108 77.1588 C 171.534 86.5581 171.669 96.7935 177.409 100.02 C 183.148 103.247 192.319 98.2429 197.892 88.8436 Z" fill="url(#paint1_linear_0_1)"></path>
<path id="Vector_2" d="M 197.59 100.019 C 203.329 96.7921 203.464 86.5567 197.891 77.1573 C 192.318 67.758 183.147 62.7541 177.408 65.9808 C 171.668 69.2075 171.533 79.4429 177.107 88.8422 C 182.68 98.2415 191.85 103.245 197.59 100.019 Z" fill="url(#paint2_linear_0_1)"></path>
<path id="Vector_3" d="M 187.5 94.6847 C 198.646 94.6847 207.682 89.4532 207.682 82.9998 C 207.682 76.5464 198.646 71.3149 187.5 71.3149 C 176.354 71.3149 167.318 76.5464 167.318 82.9998 C 167.318 89.4532 176.354 94.6847 187.5 94.6847 Z" fill="url(#paint3_linear_0_1)"></path>
<animateTransform attributeName="transform" attributeType="auto" type="rotate" values="0 188 82.5;360 188 82.5" calcMode="spline" keyTimes="0;1" keySplines="0 0 1 1" dur="40s" begin="0s" repeatCount="indefinite" additive="sum" accumulate="none" fill="freeze" id="animateTransform5665"></animateTransform></g>
<g id="Frame 1010106267">
<g id="Frame 1010106270">
<g id="star" clip-path="url(#clip1_0_1)">
<path id="Vector_4" d="M 79.9441 123.056 C 75.5916 123.056 72.0559 126.592 72.0559 130.944 C 72.0559 130.978 72.0336 131 72 131 C 71.9664 131 71.9441 130.978 71.9441 130.944 C 71.9441 126.592 68.4084 123.056 64.0559 123.056 C 64.0224 123.056 64 123.034 64 123 C 64 122.966 64.0224 122.944 64.0559 122.944 C 68.4084 122.944 71.9441 119.408 71.9441 115.056 C 71.9441 115.022 71.9664 115 72 115 C 72.0336 115 72.0559 115.022 72.0559 115.056 C 72.0559 119.408 75.5916 122.944 79.9441 122.944 C 79.9776 122.944 80 122.966 80 123 C 80 123.034 79.9776 123.056 79.9441 123.056 Z M 75.5804 117.182 C 76.7552 117.182 77.7063 116.231 77.7063 115.056 C 77.7063 115.022 77.7287 115 77.7622 115 C 77.7958 115 77.8182 115.022 77.8182 115.056 C 77.8182 116.231 78.7692 117.182 79.9441 117.182 C 79.9776 117.182 80 117.204 80 117.238 C 80 117.271 79.9776 117.294 79.9441 117.294 C 78.7692 117.294 77.8182 118.245 77.8182 119.42 C 77.8182 119.453 77.7958 119.476 77.7622 119.476 C 77.7287 119.476 77.7063 119.453 77.7063 119.42 C 77.7063 118.245 76.7552 117.294 75.5804 117.294 C 75.5469 117.294 75.5245 117.271 75.5245 117.238 C 75.5245 117.204 75.5469 117.182 75.5804 117.182 Z M 67.7483 128.818 C 66.9427 128.818 66.2937 129.467 66.2937 130.273 C 66.2937 130.306 66.2713 130.329 66.2378 130.329 C 66.2042 130.329 66.1818 130.306 66.1818 130.273 C 66.1818 129.467 65.5329 128.818 64.7273 128.818 C 64.6937 128.818 64.6713 128.796 64.6713 128.762 C 64.6713 128.729 64.6937 128.706 64.7273 128.706 C 65.5329 128.706 66.1818 128.057 66.1818 127.252 C 66.1818 127.218 66.2042 127.196 66.2378 127.196 C 66.2713 127.196 66.2937 127.218 66.2937 127.252 C 66.2937 128.057 66.9427 128.706 67.7483 128.706 C 67.7818 128.706 67.8042 128.729 67.8042 128.762 C 67.8042 128.796 67.7818 128.818 67.7483 128.818 Z" fill="#7F56D9"></path>
<animateTransform attributeName="transform" attributeType="auto" type="rotate" values="0 72 123.13;360 72 123.13" calcMode="spline" keyTimes="0;1" keySplines="0 0 1 1" dur="40s" begin="0s" repeatCount="indefinite" additive="sum" accumulate="none" fill="freeze" id="animateTransform6216"></animateTransform></g>
<text id="Welcome to Nuvolux" fill="#101828" xml:space="preserve" style="white-space: pre" font-family="Inter" font-size="20" font-weight="600" letter-spacing="0em" transform="matrix(1 0 0 1 14 -1)"><tspan x="88.4375" y="130.273" id="tspan3951">Welcome to Nuvolux</tspan></text>
<g id="star_2" clip-path="url(#clip2_0_1)">
<path id="Vector_5" d="M 310.944 123.056 C 306.592 123.056 303.056 126.592 303.056 130.944 C 303.056 130.978 303.034 131 303 131 C 302.966 131 302.944 130.978 302.944 130.944 C 302.944 126.592 299.408 123.056 295.056 123.056 C 295.022 123.056 295 123.034 295 123 C 295 122.966 295.022 122.944 295.056 122.944 C 299.408 122.944 302.944 119.408 302.944 115.056 C 302.944 115.022 302.966 115 303 115 C 303.034 115 303.056 115.022 303.056 115.056 C 303.056 119.408 306.592 122.944 310.944 122.944 C 310.978 122.944 311 122.966 311 123 C 311 123.034 310.978 123.056 310.944 123.056 Z M 306.58 117.182 C 307.755 117.182 308.706 116.231 308.706 115.056 C 308.706 115.022 308.729 115 308.762 115 C 308.796 115 308.818 115.022 308.818 115.056 C 308.818 116.231 309.769 117.182 310.944 117.182 C 310.978 117.182 311 117.204 311 117.238 C 311 117.271 310.978 117.294 310.944 117.294 C 309.769 117.294 308.818 118.245 308.818 119.42 C 308.818 119.453 308.796 119.476 308.762 119.476 C 308.729 119.476 308.706 119.453 308.706 119.42 C 308.706 118.245 307.755 117.294 306.58 117.294 C 306.547 117.294 306.524 117.271 306.524 117.238 C 306.524 117.204 306.547 117.182 306.58 117.182 Z M 298.748 128.818 C 297.943 128.818 297.294 129.467 297.294 130.273 C 297.294 130.306 297.271 130.329 297.238 130.329 C 297.204 130.329 297.182 130.306 297.182 130.273 C 297.182 129.467 296.533 128.818 295.727 128.818 C 295.694 128.818 295.671 128.796 295.671 128.762 C 295.671 128.729 295.694 128.706 295.727 128.706 C 296.533 128.706 297.182 128.057 297.182 127.252 C 297.182 127.218 297.204 127.196 297.238 127.196 C 297.271 127.196 297.294 127.218 297.294 127.252 C 297.294 128.057 297.943 128.706 298.748 128.706 C 298.782 128.706 298.804 128.729 298.804 128.762 C 298.804 128.796 298.782 128.818 298.748 128.818 Z" fill="#7F56D9"></path>
<animateTransform attributeName="transform" attributeType="auto" type="rotate" values="0 302.75 123.37;360 302.75 123.37" calcMode="spline" keyTimes="0;1" keySplines="0 0 1 1" dur="40s" begin="0s" repeatCount="indefinite" additive="sum" accumulate="none" fill="freeze" id="animateTransform1622"></animateTransform></g>
</g>
</g>
</g>
</g>
</g>
<defs id="defs7128">
<linearGradient id="paint0_linear_0_1" x1="334.5" y1="-9.34394e-09" x2="334.5" y2="194.695" gradientUnits="userSpaceOnUse">
<stop stop-color="#FFF4ED" id="stop8688"></stop>
<stop offset="0.18" stop-color="#FCE6FF" id="stop3017"></stop>
<stop offset="0.58703" stop-color="#D4EBFF" id="stop2805"></stop>
<stop offset="1" stop-color="#D1FEFC" id="stop8484"></stop>
</linearGradient>
<linearGradient id="paint1_linear_0_1" x1="176.467" y1="74.9631" x2="199.646" y2="91.8235" gradientUnits="userSpaceOnUse">
<stop stop-color="#03A4FD" stop-opacity="0" id="stop6698"></stop>
<stop offset="1" stop-color="#0849FF" id="stop7673"></stop>
</linearGradient>
<linearGradient id="paint2_linear_0_1" x1="175.8" y1="87.3515" x2="198.586" y2="78.0826" gradientUnits="userSpaceOnUse">
<stop stop-color="#0879FF" stop-opacity="0.1" id="stop1216"></stop>
<stop offset="1" stop-color="#37F9F7" id="stop4268"></stop>
</linearGradient>
<linearGradient id="paint3_linear_0_1" x1="187.397" y1="94.4138" x2="187.598" y2="71.1502" gradientUnits="userSpaceOnUse">
<stop stop-color="#FB81FF" stop-opacity="0" id="stop6069"></stop>
<stop offset="1" stop-color="#FB81FF" id="stop3493"></stop>
</linearGradient>
<clipPath id="clip0_0_1">
<rect width="40.3636" height="36" fill="white" transform="translate(167.318 65)" id="rect4864"></rect>
</clipPath>
<clipPath id="clip1_0_1">
<rect width="16" height="16" fill="white" transform="translate(64 115)" id="rect4623"></rect>
</clipPath>
<clipPath id="clip2_0_1">
<rect width="16" height="16" fill="white" transform="translate(295 115)" id="rect6955"></rect>
</clipPath>
</defs>
</svg>